<?xml version="1.0" encoding="utf-8"?>
<!-- Generator: Adobe Illustrator 23.1.0, SVG Export Plug-In . SVG Version: 6.00 Build 0)  -->
<svg version="1.1" xmlns="http://www.w3.org/2000/svg" xmlns:xlink="http://www.w3.org/1999/xlink" x="0px" y="0px"
	 viewBox="0 0 797.6 737.9" style="enable-background:new 0 0 797.6 737.9;" xml:space="preserve">
<style type="text/css">
	.st0{display:none;}
	.st1{display:inline;fill:#7A7F90;}
	.st2{fill:#FFFFFF;stroke:#000000;stroke-width:5;stroke-miterlimit:10;}
	.st3{display:none;fill:#F15722;stroke:#000000;stroke-width:4;stroke-miterlimit:10;}
	.st4{fill:#F15722;stroke:#000000;stroke-width:5;stroke-miterlimit:10;}
	.st5{fill:none;}
	.st6{filter:url(#Adobe_OpacityMaskFilter);}
	.st7{fill-rule:evenodd;clip-rule:evenodd;fill:#FFFFFF;}
	.st8{mask:url(#mask-2_6_);fill-rule:evenodd;clip-rule:evenodd;}
	.st9{filter:url(#Adobe_OpacityMaskFilter_1_);}
	.st10{mask:url(#mask-2_5_);fill-rule:evenodd;clip-rule:evenodd;fill:#F15722;}
	.st11{filter:url(#Adobe_OpacityMaskFilter_2_);}
	.st12{mask:url(#mask-2_4_);fill-rule:evenodd;clip-rule:evenodd;fill:#48BA78;}
	.st13{filter:url(#Adobe_OpacityMaskFilter_3_);}
	.st14{mask:url(#mask-2_3_);fill:none;}
	.st15{filter:url(#Adobe_OpacityMaskFilter_4_);}
	.st16{mask:url(#mask-2_2_);fill-rule:evenodd;clip-rule:evenodd;}
	.st17{filter:url(#Adobe_OpacityMaskFilter_5_);}
	.st18{mask:url(#mask-2_1_);fill-rule:evenodd;clip-rule:evenodd;}
	.st19{fill:#FFFFFF;}
	.st20{fill:#0E0E0E;}
	.st21{font-family:'Impact';}
	.st22{font-size:18px;}
	.st23{fill:#4F70B6;}
	.st24{font-family:'ArcadeNormal';}
	.st25{font-size:17px;}
	.st26{font-size:7.5298px;}
	.st27{fill:#FFFFFF;stroke:#FFFFFF;stroke-width:4;stroke-miterlimit:10;}
	.st28{fill:#2D302D;}
	.st29{fill:#FAD010;stroke:#FAD010;stroke-width:5;stroke-miterlimit:10;}
	.st30{font-family:'MVBoli';}
	.st31{font-size:44.0732px;}
	.st32{fill:none;stroke:#464847;stroke-width:2;stroke-miterlimit:10;}
	.st33{font-family:'ArcadeRounded';}
	.st34{font-size:11.5px;}
	.st35{fill:#FAD010;stroke:#2D302D;stroke-width:4;stroke-miterlimit:10;}
	.st36{filter:url(#Adobe_OpacityMaskFilter_6_);}
	.st37{mask:url(#mask-2_10_);fill-rule:evenodd;clip-rule:evenodd;fill:#5C5C5C;}
	.st38{filter:url(#Adobe_OpacityMaskFilter_7_);}
	.st39{mask:url(#mask-2_12_);fill-rule:evenodd;clip-rule:evenodd;fill:#2D302D;}
	.st40{filter:url(#Adobe_OpacityMaskFilter_8_);}
	.st41{mask:url(#mask-2_8_);fill-rule:evenodd;clip-rule:evenodd;fill:#5C5C5C;}
	.st42{filter:url(#Adobe_OpacityMaskFilter_9_);}
	.st43{mask:url(#mask-2_7_);fill-rule:evenodd;clip-rule:evenodd;fill:#5C5C5C;}
	.st44{filter:url(#Adobe_OpacityMaskFilter_10_);}
	.st45{mask:url(#mask-2_11_);fill-rule:evenodd;clip-rule:evenodd;fill:#FFFFFF;}
	.st46{filter:url(#Adobe_OpacityMaskFilter_11_);}
	.st47{mask:url(#mask-2_9_);fill-rule:evenodd;clip-rule:evenodd;fill:#2D302D;}
	.st48{fill:#00AEEF;stroke:#252951;stroke-width:0.7;stroke-miterlimit:10;}
	.st49{fill:#00A651;}
	.st50{fill:#5EBD6C;}
	.st51{font-size:11.3682px;}
	.st52{font-size:13px;}
	.st53{fill-rule:evenodd;clip-rule:evenodd;fill:#FFFFFF;fill-opacity:0.33;}
	.st54{fill:#22C3F3;}
	.st55{fill:#FFDE17;}
	.st56{fill:#407EC1;stroke:#282526;stroke-width:2;stroke-miterlimit:10;}
	.st57{fill:#282526;stroke:#282526;stroke-width:2;stroke-miterlimit:10;}
	.st58{fill:#FAD010;stroke:#282526;stroke-width:2;stroke-miterlimit:10;}
	.st59{fill:#F15722;}
	.st60{fill:none;stroke:#282526;stroke-width:2;stroke-miterlimit:10;}
	.st61{fill:#F15A29;stroke:#282526;stroke-width:2;stroke-miterlimit:10;}
	.st62{fill-rule:evenodd;clip-rule:evenodd;fill:#282526;}
	.st63{fill:#282526;}
	.st64{stroke:#FFFFFF;stroke-width:5;stroke-miterlimit:10;}
	.st65{stroke:#FFFFFF;stroke-miterlimit:10;}
	.st66{stroke:#FFFFFF;stroke-width:3;stroke-miterlimit:10;}
	.st67{fill:#3985C6;stroke:#FFFFFF;stroke-width:3;stroke-miterlimit:10;}
	.st68{fill:#3985C6;stroke:#FFFFFF;stroke-miterlimit:10;}
	.st69{font-size:16.6431px;}
</style>
<g id="BG__x5B_120_x5D_" class="st0">
	<rect class="st1" width="797.6" height="737.9"/>
</g>
<g id="_x30_1">
	<g id="base">
		<circle class="st2" cx="406.1" cy="383.9" r="119.5"/>
		<path class="st3" d="M482.2,442.4c-8.6,19-28.1,32-50.5,31.1c-27.5-1.1-49.9-23.5-51-51c-1.1-30.3,23-55.2,53.1-55.2
			c15,0,28.5,6.2,38.1,16.2c2.6,2.7,6.6,3.5,10.1,2l35.5-15.5c-17.1-28.3-48.2-47.3-83.7-47.3c-54.4,0-98.5,44.5-97.7,99.1
			c0.7,53.2,44.6,96.4,97.8,96.3c42.6,0,78.8-27.3,92.2-65.3c-9.1-4.6-15.3-6.9-34.1-14.5C488.2,436.8,483.9,438.6,482.2,442.4z"/>
		<g id="Layer_9">
			<path class="st4" d="M407.6,286c-54,0-97.7,43.8-97.7,97.7c0,54,43.8,97.7,97.7,97.7c54,0,97.7-43.8,97.7-97.7
				C505.3,329.8,461.5,286,407.6,286z M407.7,436.7c-29.2,0-52.9-23.7-52.9-52.9s23.7-52.9,52.9-52.9s52.9,23.7,52.9,52.9
				S436.9,436.7,407.7,436.7z"/>
		</g>
	</g>
	<g id="Layer_10">
	</g>
	<g id="text">
		<path id="SVGID_x5F_1_x5F_" class="st5" d="M484.8,384.8c0,42-34,76-76,76s-76-34-76-76s34-76,76-76S484.8,342.8,484.8,384.8z"/>
		<text>		<textPath  xlink:href="#SVGID_x5F_1_x5F_" startOffset="2665.7598%">
<tspan  class="st21 st25">GITCOIN DAO  GITCOIN DAO  GITCOIN DAO  •  GITCOIN DAO  • GITCOIN DAO  </tspan>		</textPath>
</text>
	</g>
	<g id="Layer_20">
	</g>
	<g id="x">
		<defs>
			<filter id="Adobe_OpacityMaskFilter" filterUnits="userSpaceOnUse" x="404.9" y="342.6" width="4.5" height="10.3">
				<feColorMatrix  type="matrix" values="1 0 0 0 0  0 1 0 0 0  0 0 1 0 0  0 0 0 1 0"/>
			</filter>
		</defs>
		<mask maskUnits="userSpaceOnUse" x="404.9" y="342.6" width="4.5" height="10.3" id="mask-2_6_">
			<g class="st6">
				<polygon id="path-1_6_" class="st7" points="373.7,419 740.6,419 740.6,334.7 373.7,334.7 				"/>
			</g>
		</mask>
		<path id="Fill-384_1_" class="st8" d="M409.4,352.8v-7.9c0-1.3-1-2.3-2.3-2.3c-1.3,0-2.3,1-2.3,2.3v8.1c1.2-0.1,2.3-0.2,3.5-0.2
			C408.7,352.8,409.1,352.8,409.4,352.8"/>
		<defs>
			<filter id="Adobe_OpacityMaskFilter_1_" filterUnits="userSpaceOnUse" x="420.4" y="366.9" width="12.5" height="34.3">
				<feColorMatrix  type="matrix" values="1 0 0 0 0  0 1 0 0 0  0 0 1 0 0  0 0 0 1 0"/>
			</filter>
		</defs>
		<mask maskUnits="userSpaceOnUse" x="420.4" y="366.9" width="12.5" height="34.3" id="mask-2_5_">
			<g class="st9">
				<polygon id="path-1_5_" class="st7" points="373.7,419 740.6,419 740.6,334.7 373.7,334.7 				"/>
			</g>
		</mask>
		<path id="Fill-385_1_" class="st10" d="M420.4,371.2l0.4,0.4c3.5,3.4,5.4,7.9,5.4,12.8c0,4.6-1.8,9-5,12.4l-0.2,0.2l1.5,1.4
			l3.7,2.9c4.4-4.6,6.8-10.6,6.8-16.9c0-6.6-2.6-12.8-7.3-17.5l-2.3,2.2L420.4,371.2z"/>
		<defs>
			<filter id="Adobe_OpacityMaskFilter_2_" filterUnits="userSpaceOnUse" x="422.5" y="398.3" width="3.7" height="3.2">
				<feColorMatrix  type="matrix" values="1 0 0 0 0  0 1 0 0 0  0 0 1 0 0  0 0 0 1 0"/>
			</filter>
		</defs>
		<mask maskUnits="userSpaceOnUse" x="422.5" y="398.3" width="3.7" height="3.2" id="mask-2_4_">
			<g class="st11">
				<polygon id="path-1_4_" class="st7" points="373.7,419 740.6,419 740.6,334.7 373.7,334.7 				"/>
			</g>
		</mask>
		<path id="Fill-386_1_" class="st12" d="M425.8,401.5l0.2-0.2c0-0.1,0.1-0.1,0.1-0.2l-3.7-2.9L425.8,401.5z"/>
		<defs>
			<filter id="Adobe_OpacityMaskFilter_3_" filterUnits="userSpaceOnUse" x="412.7" y="362" width="18" height="16.6">
				<feColorMatrix  type="matrix" values="1 0 0 0 0  0 1 0 0 0  0 0 1 0 0  0 0 0 1 0"/>
			</filter>
		</defs>
		<mask maskUnits="userSpaceOnUse" x="412.7" y="362" width="18" height="16.6" id="mask-2_3_">
			<g class="st13">
				<polygon id="path-1_3_" class="st7" points="373.7,419 740.6,419 740.6,334.7 373.7,334.7 				"/>
			</g>
		</mask>
		<line id="Fill-387_1_" class="st14" x1="430.7" y1="362" x2="412.7" y2="378.7"/>
		<defs>
			<filter id="Adobe_OpacityMaskFilter_4_" filterUnits="userSpaceOnUse" x="373.7" y="349.7" width="61.4" height="69.3">
				<feColorMatrix  type="matrix" values="1 0 0 0 0  0 1 0 0 0  0 0 1 0 0  0 0 0 1 0"/>
			</filter>
		</defs>
		<mask maskUnits="userSpaceOnUse" x="373.7" y="349.7" width="61.4" height="69.3" id="mask-2_2_">
			<g class="st15">
				<polygon id="path-1_2_" class="st7" points="373.7,419 740.6,419 740.6,334.7 373.7,334.7 				"/>
			</g>
		</mask>
		<path id="Fill-388_1_" class="st16" d="M428.6,412.8h-20.2c-15.7,0-28.5-12.8-28.5-28.5c0-15.7,12.8-28.5,28.5-28.5
			c6.5,0,12.7,2.2,17.7,6.2l-13.9,12.8c-1.2-0.5-2.5-0.8-3.8-0.8c-5.6,0-10.2,4.6-10.2,10.2c0,5.6,4.6,10.2,10.2,10.2
			c1,0,2-0.1,2.9-0.4l17.3,13V412.8z M408.4,388.4c-2.2,0-4-1.8-4-4c0-2.2,1.8-4,4-4c2.2,0,4,1.8,4,4
			C412.4,386.6,410.6,388.4,408.4,388.4L408.4,388.4z M418.6,384.3c0-2-0.6-3.9-1.6-5.5l8.3-7.6l0.1,0.1l9.8-9.2l-2.3-2.3
			c-6.5-6.5-15.3-10.2-24.5-10.2c-19.1,0-34.7,15.6-34.7,34.7c0,18.9,15.2,34.3,34.1,34.7v0h27v-14.9l-18.2-13.7
			C417.9,388.7,418.6,386.6,418.6,384.3L418.6,384.3z"/>
		<defs>
			<filter id="Adobe_OpacityMaskFilter_5_" filterUnits="userSpaceOnUse" x="394.1" y="342.6" width="4.5" height="28.7">
				<feColorMatrix  type="matrix" values="1 0 0 0 0  0 1 0 0 0  0 0 1 0 0  0 0 0 1 0"/>
			</filter>
		</defs>
		<mask maskUnits="userSpaceOnUse" x="394.1" y="342.6" width="4.5" height="28.7" id="mask-2_1_">
			<g class="st17">
				<polygon id="path-1_1_" class="st7" points="373.7,419 740.6,419 740.6,334.7 373.7,334.7 				"/>
			</g>
		</mask>
		<path id="Fill-392_1_" class="st18" d="M396.4,371.3c-1.3,0-2.3-1-2.3-2.3v-24.2c0-1.3,1-2.3,2.3-2.3s2.3,1,2.3,2.3V369
			C398.7,370.3,397.6,371.3,396.4,371.3"/>
	</g>
</g>
<g id="_x30_2">
	<path class="st19" d="M748.9,582H530.1c-2.6,0-4.7-2.1-4.7-4.7v-90.6c0-2.6,2.1-4.7,4.7-4.7h218.8c2.6,0,4.7,2.1,4.7,4.7v90.6
		C753.6,579.9,751.5,582,748.9,582z"/>
	<path class="st20" d="M743.1,575H537c-2.4,0-4.4-2-4.4-4.4v-76.7c0-2.4,2-4.4,4.4-4.4h206c2.4,0,4.4,2,4.4,4.4v76.7
		C747.5,573,745.5,575,743.1,575z"/>
	<g id="Layer_11">
		<text transform="matrix(1 0 0 1 686.7884 554.9414)" class="st19 st21 st22">DAO</text>
		<g>
			<text transform="matrix(1 0 0 1 548.5519 521.1534)" class="st23 st24 st25">OPEN SOURCE</text>
		</g>
		<text transform="matrix(1 0 0 1 567.2234 554.9415)" class="st19 st21 st22">ERC</text>
	</g>
	<g id="Layer_12">
		<path class="st23" d="M655.9,556.5l-13.7,6.6c-0.3,0.2-0.7,0.2-1,0l-13.6-6.8c-0.4-0.2-0.7-0.6-0.7-1.1l0.1-13.1
			c0-0.5,0.3-0.9,0.7-1.1l13.7-6.6c0.3-0.2,0.7-0.2,1,0l13.6,6.8c0.4,0.2,0.7,0.6,0.7,1.1l-0.1,13.1
			C656.6,555.9,656.3,556.3,655.9,556.5z"/>
		<path class="st20" d="M653.1,554.9l-11.3,5.6c-0.1,0.1-0.3,0.1-0.5,0l-11.2-5.7c-0.2-0.1-0.3-0.3-0.3-0.5l0.1-11.2
			c0-0.2,0.1-0.4,0.3-0.5l11.3-5.6c0.1-0.1,0.3-0.1,0.5,0l11.2,5.7c0.2,0.1,0.3,0.3,0.3,0.5l-0.1,11.2
			C653.4,554.6,653.3,554.8,653.1,554.9z"/>
		<g>
			<text transform="matrix(1.0444 0 0 1 634.6771 551.9803)" class="st19 st24 st26">20</text>
		</g>
	</g>
</g>
<g id="_x30_3">
	<g>
		<path class="st27" d="M96.7,590l-24.4,14.2c-2.7,1.5-5.9,1.6-8.6,0.1l-24.6-13.7c-2.7-1.5-4.5-4.4-4.5-7.5l-0.3-27.6
			c0-3.1,1.6-6.1,4.3-7.6L63,533.7c2.7-1.5,5.9-1.6,8.6-0.1l24.6,13.7c2.7,1.5,4.5,4.4,4.5,7.5l0.3,27.6
			C101,585.5,99.4,588.5,96.7,590z"/>
		<path class="st19" d="M297.2,633.1H95.5c-25.1,0-45.5-20.4-45.5-45.5v-37.3c0-25.1,20.4-45.5,45.5-45.5h201.7
			c25.1,0,45.5,20.4,45.5,45.5v37.3C342.7,612.7,322.3,633.1,297.2,633.1z"/>
		<path class="st28" d="M296.1,624H97.6c-20.2,0-36.5-16.4-36.5-36.5v-36.8c0-20.2,16.4-36.5,36.5-36.5h198.5
			c20.2,0,36.5,16.4,36.5,36.5v36.8C332.6,607.6,316.2,624,296.1,624z"/>
		<text transform="matrix(0.8933 0 0 1 105.2108 567.273)" class="st29 st30 st31">COORDINATION</text>
		<line class="st32" x1="114.8" y1="585.1" x2="314.5" y2="585.1"/>
		<text transform="matrix(1 0 0 1 116.8166 607.5964)" class="st19 st33 st34">gitcoin community</text>
		<path class="st35" d="M93.2,586.8l-20.7,12c-2.3,1.3-5,1.3-7.3,0.1l-20.9-11.6c-2.3-1.3-3.8-3.7-3.8-6.4l-0.2-23.4
			c0-2.7,1.4-5.1,3.7-6.5l20.7-12c2.3-1.3,5-1.3,7.3-0.1l20.9,11.6c2.3,1.3,3.8,3.7,3.8,6.4l0.2,23.4
			C96.9,583,95.5,585.5,93.2,586.8z"/>
	</g>
	<g id="Layer_22">
		<defs>
			<filter id="Adobe_OpacityMaskFilter_6_" filterUnits="userSpaceOnUse" x="27.1" y="-49.7" width="1.8" height="4.1">
				<feColorMatrix  type="matrix" values="1 0 0 0 0  0 1 0 0 0  0 0 1 0 0  0 0 0 1 0"/>
			</filter>
		</defs>
		<mask maskUnits="userSpaceOnUse" x="27.1" y="-49.7" width="1.8" height="4.1" id="mask-2_10_">
			<g class="st36">
				<polygon id="path-1_10_" class="st7" points="14.7,-19.4 160.6,-19.4 160.6,-52.9 14.7,-52.9 				"/>
			</g>
		</mask>
		<path id="Fill-384_2_" class="st37" d="M28.9-45.7v-3.1c0-0.5-0.4-0.9-0.9-0.9c-0.5,0-0.9,0.4-0.9,0.9v3.2
			c0.5-0.1,0.9-0.1,1.4-0.1C28.6-45.7,28.8-45.7,28.9-45.7"/>
		<defs>
			<filter id="Adobe_OpacityMaskFilter_7_" filterUnits="userSpaceOnUse" x="75.9" y="561.4" width="5.5" height="15.2">
				<feColorMatrix  type="matrix" values="1 0 0 0 0  0 1 0 0 0  0 0 1 0 0  0 0 0 1 0"/>
			</filter>
		</defs>
		<mask maskUnits="userSpaceOnUse" x="75.9" y="561.4" width="5.5" height="15.2" id="mask-2_12_">
			<g class="st38">
				<polygon id="path-1_12_" class="st7" points="55.2,584.5 217.3,584.5 217.3,547.2 55.2,547.2 				"/>
			</g>
		</mask>
		<path id="Fill-385_2_" class="st39" d="M75.9,563.4l0.2,0.2c1.5,1.5,2.4,3.5,2.4,5.6c0,2.1-0.8,4-2.2,5.5l-0.1,0.1l0.6,0.6
			l1.6,1.3c1.9-2,3-4.7,3-7.5c0-2.9-1.1-5.7-3.2-7.7l-1,1L75.9,563.4z"/>
		<defs>
			<filter id="Adobe_OpacityMaskFilter_8_" filterUnits="userSpaceOnUse" x="14.7" y="-46.9" width="24.4" height="27.6">
				<feColorMatrix  type="matrix" values="1 0 0 0 0  0 1 0 0 0  0 0 1 0 0  0 0 0 1 0"/>
			</filter>
		</defs>
		<mask maskUnits="userSpaceOnUse" x="14.7" y="-46.9" width="24.4" height="27.6" id="mask-2_8_">
			<g class="st40">
				<polygon id="path-1_8_" class="st7" points="14.7,-19.4 160.6,-19.4 160.6,-52.9 14.7,-52.9 				"/>
			</g>
		</mask>
		<path id="Fill-388_2_" class="st41" d="M36.5-21.8h-8c-6.2,0-11.3-5.1-11.3-11.3c0-6.2,5.1-11.3,11.3-11.3c2.6,0,5,0.9,7,2.5
			L30-36.9c-0.5-0.2-1-0.3-1.5-0.3c-2.2,0-4.1,1.8-4.1,4.1s1.8,4.1,4.1,4.1c0.4,0,0.8-0.1,1.1-0.2l6.9,5.2V-21.8z M28.5-31.5
			c-0.9,0-1.6-0.7-1.6-1.6c0-0.9,0.7-1.6,1.6-1.6c0.9,0,1.6,0.7,1.6,1.6C30.1-32.3,29.4-31.5,28.5-31.5L28.5-31.5z M32.5-33.2
			c0-0.8-0.2-1.5-0.6-2.2l3.3-3l0,0l3.9-3.7l-0.9-0.9c-2.6-2.6-6.1-4-9.7-4c-7.6,0-13.8,6.2-13.8,13.8c0,7.5,6.1,13.7,13.6,13.8v0
			H39v-5.9l-7.2-5.4C32.3-31.4,32.5-32.2,32.5-33.2L32.5-33.2z"/>
		<defs>
			<filter id="Adobe_OpacityMaskFilter_9_" filterUnits="userSpaceOnUse" x="22.8" y="-49.7" width="1.8" height="11.4">
				<feColorMatrix  type="matrix" values="1 0 0 0 0  0 1 0 0 0  0 0 1 0 0  0 0 0 1 0"/>
			</filter>
		</defs>
		<mask maskUnits="userSpaceOnUse" x="22.8" y="-49.7" width="1.8" height="11.4" id="mask-2_7_">
			<g class="st42">
				<polygon id="path-1_7_" class="st7" points="14.7,-19.4 160.6,-19.4 160.6,-52.9 14.7,-52.9 				"/>
			</g>
		</mask>
		<path id="Fill-392_2_" class="st43" d="M23.7-38.3c-0.5,0-0.9-0.4-0.9-0.9v-9.6c0-0.5,0.4-0.9,0.9-0.9c0.5,0,0.9,0.4,0.9,0.9v9.6
			C24.6-38.7,24.2-38.3,23.7-38.3"/>
		<defs>
			<filter id="Adobe_OpacityMaskFilter_10_" filterUnits="userSpaceOnUse" x="51.9" y="552.4" width="29.4" height="33.2">
				<feColorMatrix  type="matrix" values="1 0 0 0 0  0 1 0 0 0  0 0 1 0 0  0 0 0 1 0"/>
			</filter>
		</defs>
		<mask maskUnits="userSpaceOnUse" x="51.9" y="552.4" width="29.4" height="33.2" id="mask-2_11_">
			<g class="st44">
				<polygon id="path-1_11_" class="st7" points="51.9,585.6 227.8,585.6 227.8,545.2 51.9,545.2 				"/>
			</g>
		</mask>
		<path id="Fill-388_4_" class="st45" d="M54.9,569 M73.4,569c0-1-0.3-1.9-0.8-2.6l4-3.7l0,0l4.7-4.4l-1.1-1.1
			c-3.1-3.1-7.3-4.9-11.7-4.9c-9.2,0-16.6,7.5-16.6,16.6c0,9.1,7.3,16.5,16.3,16.6v0h12.9v-7.1l-8.7-6.6
			C73.1,571.1,73.4,570.1,73.4,569L73.4,569z"/>
		<defs>
			<filter id="Adobe_OpacityMaskFilter_11_" filterUnits="userSpaceOnUse" x="51.9" y="552.4" width="29.4" height="33.2">
				<feColorMatrix  type="matrix" values="1 0 0 0 0  0 1 0 0 0  0 0 1 0 0  0 0 0 1 0"/>
			</filter>
		</defs>
		<mask maskUnits="userSpaceOnUse" x="51.9" y="552.4" width="29.4" height="33.2" id="mask-2_9_">
			<g class="st46">
				<polygon id="path-1_9_" class="st7" points="51.9,585.6 227.8,585.6 227.8,545.2 51.9,545.2 				"/>
			</g>
		</mask>
		<path id="Fill-388_3_" class="st47" d="M78.2,582.7h-9.7c-7.5,0-13.6-6.1-13.6-13.6c0-7.5,6.1-13.6,13.6-13.6c3.1,0,6.1,1,8.5,3
			l-6.6,6.1c-0.6-0.2-1.2-0.4-1.8-0.4c-2.7,0-4.9,2.2-4.9,4.9s2.2,4.9,4.9,4.9c0.5,0,0.9-0.1,1.4-0.2l8.3,6.2V582.7z M68.5,570.9
			c-1.1,0-1.9-0.9-1.9-1.9s0.9-1.9,1.9-1.9c1.1,0,1.9,0.9,1.9,1.9S69.6,570.9,68.5,570.9L68.5,570.9z M73.4,569c0-1-0.3-1.9-0.8-2.6
			l4-3.7l0,0l4.7-4.4l-1.1-1.1c-3.1-3.1-7.3-4.9-11.7-4.9c-9.2,0-16.6,7.5-16.6,16.6c0,9.1,7.3,16.5,16.3,16.6v0h12.9v-7.1l-8.7-6.6
			C73.1,571.1,73.4,570.1,73.4,569L73.4,569z"/>
	</g>
</g>
<g id="_x30_4">
	<path class="st2" d="M764.7,409H598.1c-6.6,0-12-5.4-12-12V124.5c0-6.6,5.4-12,12-12h166.6c6.6,0,12,5.4,12,12V397
		C776.7,403.6,771.3,409,764.7,409z"/>
	<path class="st48" d="M756.4,394.7H608.3c-3.2,0-5.8-2.6-5.8-5.8V133.6c0-3.2,2.6-5.8,5.8-5.8h148.1c3.2,0,5.8,2.6,5.8,5.8v255.3
		C762.3,392.1,759.7,394.7,756.4,394.7z"/>
	<path class="st49" d="M756.2,394.1H608c-2.9,0-5.3-2.4-5.3-5.3v-73.9c0-2.9,2.4-5.3,5.3-5.3h148.2c2.9,0,5.3,2.4,5.3,5.3v73.9
		C761.5,391.7,759.1,394.1,756.2,394.1z"/>
	<g id="Layer_16">
		<path class="st50" d="M616.6,394.2c36-10.1,78.6-30.1,74.8-51.8c-4-15.8-20.7-8.3-20.3-29h24.8c0,12.1,14.7,4.1,40.7,29.6
			c12.5,14.6,9,35.6-19.3,51.2H616.6z"/>
	</g>
	<text transform="matrix(1 0 0 1 616.0843 376.2946)" class="st19 st24 st51">PUBLIC GOODS</text>
	<text transform="matrix(1 0 0 1 629.1335 160.6165)" class="st19 st24 st52">SOLARPUNK</text>
	<path class="st53" d="M590.5,353.7l7.1-6.1c0-0.6,0-1.2-0.1-1.9L590.5,353.7z"/>
	<path class="st53" d="M762,290.8l-16.8,2.3l16.9-7.2c-0.1-1.9,0-4.1-0.1-6l-19.6,5.5l19.7-11.7c-0.1-1.8,0.1-3.9,0-5.6l-23.6,10.1
		l23.6-18.8c0-1.5,0.1-3.4,0-4.9l-28.6,17.1l28.7-30.1c0-1.1,0.1-2.2,0.1-3.2l-34.7,27.5l35.3-49.2l-42.1,44.3l27.7-53.2L713,256.9
		l19.5-56L704.8,254l10.9-57.8l-19.5,56.1l2.2-58.3l-10.9,57.8l-6.7-57.7l-2.1,58.3l-15.4-55.9l6.7,57.7l-23.8-53l15.4,55.9
		l-31.7-48.9l23.8,52.9L615,217.2l31.7,48.9l-43.8-36.6c0,0.2,0,0.6,0,0.8l37.4,41.7L603,248.8c0,1-0.1,2.3-0.2,3.4l31.9,26.4
		L603,264.1c0,1.4,0,8.4,0,9.8l27.3,12l-27.3-7.5c0,1.6-0.1,3.3-0.1,4.9l24.1,10.4l-23.4-2.6c0,1.7,0,3-0.5,4.7l21.7,6l-4.3,0
		c20.5,5.8,41.2,11.3,62.5,10.6c24.7-1.3,55.4-18.5,78.4-15.1l0.7-0.2C761.9,295.1,762.1,292.8,762,290.8z"/>
	<path class="st53" d="M596.8,168.6l2.3,2.8c0-0.2,0-0.5,0-0.7L596.8,168.6z"/>
	<g id="Layer_17">
		<path class="st54" d="M603,315.4v-41.5l59.8,8.6c2.1,0.3,4.3,0.4,6.4,0.2l92.5-8.7v41.5H603z"/>
	</g>
	<path id="sun_1_" class="st55" d="M726.2,315.3h-85c4.9-17,22.1-29.5,42.5-29.5C704.1,285.8,721.3,298.4,726.2,315.3z"/>
</g>
<g id="_x30_5">
	<g id="Layer_19">
	</g>
	<path class="st56" d="M384.6,77.5c-40.1,5-71.3,36.6-69.1,76.9c2.1,40.3,36.6,71.3,76.9,69.1c2.1-0.1,4.2-0.3,6.2-0.6
		c-5.6-5.1-11.2-35.1-13.2-71.7c-2.1-39.8-0.6-73.2,5.3-74.2c0,0,0,0,0-0.1C388.1,77.1,387.5,77.1,384.6,77.5z"/>
	<path class="st57" d="M406.4,149.4c1.9,35.7-0.4,65.6-5.1,72.2c-0.6,0.9-1.3,1.3-2,1.4c-0.6,0-1.1-0.2-1.7-0.7
		c-5.6-5.1-11.2-35.1-13.2-71.7c-2.1-40.3,1-73.3,7.1-73.6C397.6,76.6,404.3,109.1,406.4,149.4z"/>
	<path class="st58" d="M470.5,77.5c40.1,5,71.3,36.6,69.1,76.9c-2.1,40.3-36.6,71.3-76.9,69.1c-2.1-0.1-4.2-0.3-6.2-0.6
		c5.6-5.1,11.2-35.1,13.2-71.7c2.1-39.8,0.6-73.2-5.3-74.2c0,0,0,0,0-0.1C467,77.1,467.6,77.1,470.5,77.5z"/>
	<path class="st57" d="M448.6,149.4c-1.9,35.7,0.4,65.6,5.1,72.2c0.6,0.9,1.3,1.3,2,1.4c0.6,0,1.1-0.2,1.7-0.7
		c5.6-5.1,11.2-35.1,13.2-71.7c2.1-40.3-1-73.3-7.1-73.6C457.4,76.6,450.8,109.1,448.6,149.4z"/>
	<polygon class="st59" points="427.7,89.5 466,151.5 427.5,133.8 427.2,89.2 	"/>
	<polygon class="st59" points="427.5,210.9 427.8,179.6 461.3,161.7 462.5,161.6 428.9,209.8 	"/>
	<polygon class="st59" points="427.2,134.6 427,173.4 389.6,151.6 389.9,151.2 427.2,134.2 	"/>
	<polygon class="st59" points="426,209.5 392.5,160.5 401.6,164.9 426,178.7 428.4,179 462,160.5 435.3,200.5 427.5,212.4 	"/>
	<polygon class="st59" points="426.5,172.9 389.9,151.2 427.2,89.2 464.9,150.9 462.1,153.8 428.7,172.9 427,173.4 	"/>
	<g>
		<polygon class="st60" points="427.4,88.3 389,151.6 427.4,173.6 466,151.6 		"/>
		<polygon class="st60" points="391.7,159.3 427.5,179.6 463.7,159.1 427.5,211.7 		"/>
		<line class="st60" x1="427.4" y1="173.6" x2="427.4" y2="88.3"/>
		<polyline class="st60" points="466,151.6 427.5,134.1 389,151.6 		"/>
		<line class="st61" x1="427.5" y1="179.6" x2="427.5" y2="211.7"/>
	</g>
	<path class="st62" d="M360,111.8c-0.8-0.5-1.7-0.8-2.6-0.7l-0.2-1.8l-0.5,0.1c-1.5,0.3-2.9,1.2-3.8,2.5l-0.7-0.5
		c-0.2-0.1-0.4-0.1-0.5,0.1c-0.1,0.2-0.1,0.4,0.1,0.6l0.7,0.5c-0.2,0.3-0.4,0.7-0.5,1l-0.8-0.6c-0.2-0.1-0.4-0.1-0.5,0.1
		s-0.1,0.4,0.1,0.6l1.1,0.8c-0.5,2.3,0.3,4.7,2.2,6.1c2.6,1.8,6.3,1.1,8.3-1.7l0,0l2.8-4l-2-1.4l-1.4,0.5
		C361.3,113.1,360.8,112.3,360,111.8z M357.6,113.6l-0.1-1.3c0.7,0,1.3,0.1,1.8,0.5c0.5,0.4,0.9,0.9,1.1,1.5l-1.3,0.5
		c-0.1-0.4-0.3-0.7-0.6-0.9C358.3,113.7,357.9,113.6,357.6,113.6z M362.7,114.6l0.8,0.5l-2.1,3c-1.6,2.3-4.7,3-6.9,1.5
		c-1.4-1-2.1-2.8-1.9-4.5l1.3,0.9c0.2,0.1,0.4,0.1,0.5-0.1c0.1-0.2,0.1-0.4-0.1-0.6l-1.6-1.1c0.2-0.6,0.4-1.1,0.8-1.6
		c0.7-1,1.6-1.7,2.7-2l0.3,3.3c-0.2,0.1-0.4,0.3-0.5,0.5c-0.6,0.8-0.4,2,0.3,2.5c0.8,0.5,1.9,0.3,2.5-0.5c0.1-0.1,0.2-0.3,0.2-0.5
		L362.7,114.6z M357.9,114.8c0.3,0.2,0.4,0.7,0.1,1c-0.2,0.3-0.7,0.4-1,0.2c-0.3-0.2-0.4-0.7-0.1-1
		C357.1,114.7,357.6,114.6,357.9,114.8z"/>
	<path id="SVGID_x5F_2_x5F_" class="st5" d="M462.4,147.8c1.7,30.5-24.9,56.8-59.3,58.7c-34.4,1.9-63.7-21.3-65.3-51.8
		c-1.7-30.5,24.9-56.8,59.3-58.7C431.5,94.1,460.7,117.3,462.4,147.8z"/>
	<text>	<textPath  xlink:href="#SVGID_x5F_2_x5F_" startOffset="45.5567%">
<tspan  class="st63 st33" style="font-size:12px;">gITcoIN</tspan>	</textPath>
</text>
	<ellipse class="st63" cx="491.8" cy="125" rx="5.6" ry="15.4"/>
	<path class="st63" d="M467.9,185.4c0,0,27.5,3.5,49.3-25c0,0-25.6,22.6-48.3,19.5"/>
</g>
<g id="_x30_7">
	<path class="st64" d="M145.3,406.8L58,287.7c-4.8-6.5-4.8-17.1,0-23.6l87.3-119.1c4.8-6.5,12.5-6.5,17.3,0l89.6,122.3
		c3.5,4.8,3.5,12.6,0,17.4l-89.6,122.3C157.8,413.3,150,413.3,145.3,406.8z"/>
	<path class="st65" d="M149.1,395.8L66.2,282.7c-2.8-3.8-2.8-10,0-13.8l82.9-113.1c2.8-3.8,7.3-3.8,10.1,0L242,269
		c2.8,3.8,2.8,10,0,13.8l-82.9,113.1C156.4,399.6,151.9,399.6,149.1,395.8z"/>
	<path class="st66" d="M230.9,275.5c0,1.5-0.4,3-1.2,4.1l-70.1,95.7c-2.5,3.5-6.7,3.5-9.2,0l-68.5-93.4c-1.3-1.7-1.9-4-1.9-6.3"/>
	<path class="st67" d="M80,275.5c0-2.3,0.6-4.6,1.9-6.3l68.5-93.4c2.5-3.5,6.7-3.5,9.2,0l70.1,95.7c0.8,1.1,1.2,2.6,1.2,4.1"/>
	<polygon class="st19" points="155.4,294.1 161.6,306.5 175.3,308.5 165.4,318.2 167.7,331.8 155.4,325.4 143.2,331.8 145.5,318.2 
		135.6,308.5 149.3,306.5 	"/>
	<g id="Layer_21">
		<path class="st68" d="M218.3,379.8H93.9c-0.5,0-0.9-0.4-0.9-0.9v-26.1c0-0.5,0.4-0.9,0.9-0.9h124.4c0.5,0,0.9,0.4,0.9,0.9v26.1
			C219.2,379.4,218.8,379.8,218.3,379.8z"/>
	</g>
	<text transform="matrix(1 0 0 1 100.5212 373.1586)" class="st19 st33 st69">WEB 3.0</text>
	<path class="st7" d="M146.6,217.6c-0.2,0.2-0.1,0.5,0.1,0.5l10.6,2.9c1,0.3,1.9,0.9,2.4,1.9c0.5,0.9,0.7,2.1,0.4,3.1L160,227
		c-0.3,1.1,0,2.3,0.8,3.1c0.8,0.8,1.9,1,3,0.8l1.2-0.3c0.3-0.1,0.5-0.4,0.4-0.7c0,0-4.1-15.5-4.4-16.9c0-0.1,0-0.1-0.1-0.2l-4.5-4.5
		c-0.1-0.1-0.3-0.1-0.5,0L146.6,217.6z M168.2,232.2c-0.6,0.9-1.4,1.5-2.5,1.8l-1,0.3c-1.1,0.3-2,1.2-2.3,2.3
		c-0.3,1.1,0,2.2,0.8,2.9l0.9,0.9c0.2,0.2,0.6,0.2,0.8,0l11.5-11.5c0.1-0.1,0.1-0.3,0-0.5l-9.9-9.9c-0.2-0.2-0.6,0-0.5,0.3l2.7,10.2
		C169,230.1,168.8,231.2,168.2,232.2z M133.2,238.3c-0.1,0.1-0.3,0.1-0.5,0l-3.2-3.2c-0.1-0.1-0.1-0.3,0-0.5l13.7-13.7
		c0.1-0.1,0.2-0.1,0.3-0.1l12.9,3.5c0.2,0,0.3,0.1,0.4,0.3c0.1,0.1,0.1,0.3,0,0.4l-0.3,1.2c-0.3,1.1-1.1,1.9-2.2,2.2
		c-1.1,0.3-2.2,0-3-0.8l-0.8-0.8c-0.7-0.7-1.7-1.2-2.8-1.2c-1.1,0-2.2,0.4-3,1.2C144.9,226.7,134.9,236.7,133.2,238.3z M156.4,261.5
		l9.5-9.4c0.2-0.2,0.1-0.5-0.2-0.6l-10.9-2.9c-1-0.3-1.9-0.9-2.4-1.9c-0.5-0.9-0.7-2.1-0.4-3.1l0.3-1c0.3-1.2,0-2.5-1-3.3
		c-0.8-0.7-1.8-0.9-2.8-0.6c0,0,0,0,0,0c0,0,0,0,0,0c-0.9,0.3-1.3,1.2-1.1,2.1l4,16.1l4.6,4.7C156,261.6,156.2,261.6,156.4,261.5z
		 M178.9,231.3c0.1-0.1,0.3-0.1,0.5,0l3.4,3.4c0.1,0.1,0.1,0.3,0,0.5l-13.5,13.5c-0.1,0.1-0.2,0.1-0.3,0.1l-13.2-3.5
		c-0.2,0-0.3-0.1-0.4-0.3c-0.1-0.1-0.1-0.3,0-0.4l0.3-1.1c0.3-1.1,1.2-2,2.3-2.3c0.2-0.1,0.5-0.1,0.7-0.1c0.8,0,1.6,0.3,2.2,0.9
		l0.9,0.9c0.8,0.8,1.8,1.2,2.8,1.2c1.1,0,2.1-0.4,2.8-1.2L178.9,231.3z M143.9,237.4c0.5-0.9,1.4-1.6,2.4-1.9l1.1-0.3
		c1.1-0.3,2-1.2,2.3-2.3c0.3-1.1,0-2.2-0.8-2.9l-0.9-0.9c-0.2-0.2-0.6-0.2-0.8,0c0,0-10,10-11.6,11.6c-0.1,0.1-0.1,0.3,0,0.5
		l10.2,10.2c0.2,0.2,0.6,0,0.5-0.3l-2.8-10.6C143.3,239.5,143.4,238.4,143.9,237.4z M159.6,234.9c0,1.9-1.6,3.5-3.5,3.5
		c-1.9,0-3.5-1.6-3.5-3.5c0-1.9,1.6-3.5,3.5-3.5C158.1,231.4,159.6,233,159.6,234.9z"/>
</g>
</svg>
